<svg xmlns="http://www.w3.org/2000/svg" width="115" height="115" viewBox="0 0 115 115"><defs><style>.a,.b{fill:#1794ad;}.a{opacity:0.06;}.c{fill:none;stroke:#fff;}.d{fill:#fff;fill-rule:evenodd;}</style></defs><g transform="translate(-719.866 -215.934)"><circle class="a" cx="57.5" cy="57.5" r="57.5" transform="translate(719.866 215.934)"/><g transform="translate(315.866 82.934)"><path class="b" d="M81.412,45.429l8.163-7.989a4.229,4.229,0,0,0-1.893-7.161L76.56,27.441,79.7,16.433a4.3,4.3,0,0,0-5.265-5.267l-11,3.136L60.588,3.177A4.259,4.259,0,0,0,53.43,1.283L45.443,9.509,37.457,1.283A4.259,4.259,0,0,0,30.3,3.177L27.462,14.3l-11-3.136a4.3,4.3,0,0,0-5.265,5.267l3.135,11.008L3.205,30.28A4.229,4.229,0,0,0,1.312,37.44l8.163,7.989L1.312,53.418a4.229,4.229,0,0,0,1.893,7.161l11.121,2.838L11.191,74.426a4.3,4.3,0,0,0,5.265,5.267l11-3.136L30.3,87.682a4.221,4.221,0,0,0,7.158,1.894l7.987-8.166,7.986,8.166a4.238,4.238,0,0,0,7.158-1.894l2.837-11.125,11,3.136A4.3,4.3,0,0,0,79.7,74.426L76.56,63.417l11.121-2.838a4.229,4.229,0,0,0,1.893-7.161l-8.163-7.989Z" transform="translate(414.713 144.787)"/><g transform="translate(428.959 158.889)"><path class="c" d="M31.436,0a31.4,31.4,0,1,1,0,62.8c-.885,0-1.762-.037-3.159-.157C12.675,61.356,0,47.856,0,31.4A31.418,31.418,0,0,1,31.436,0Z"/><g transform="translate(22.011 41.078)"><path class="d" d="M341.907,255.424h8.484a1.662,1.662,0,0,1,1.688,2.1l-1.734,8.376a2.729,2.729,0,0,1-2.555,2.1H339.3a1.663,1.663,0,0,1-1.687-2.1l1.734-8.376A2.726,2.726,0,0,1,341.907,255.424Z" transform="translate(-337.559 -255.422)"/></g><g transform="translate(25.38 26.729)"><path class="d" d="M347.051,233.486h8.484a1.662,1.662,0,0,1,1.688,2.1l-1.735,8.376a2.728,2.728,0,0,1-2.555,2.1h-8.485a1.665,1.665,0,0,1-1.744-1.58,1.684,1.684,0,0,1,.057-.517l1.733-8.376A2.728,2.728,0,0,1,347.051,233.486Z" transform="translate(-342.703 -233.484)"/></g><g transform="translate(28.577 12.38)"><path class="d" d="M351.933,211.548h8.484a1.662,1.662,0,0,1,1.688,2.1l-1.735,8.376a2.728,2.728,0,0,1-2.555,2.1h-8.485a1.662,1.662,0,0,1-1.687-2.1l1.734-8.376A2.728,2.728,0,0,1,351.933,211.548Z" transform="translate(-347.585 -211.546)"/></g><g transform="translate(13.699 12.38)"><path class="d" d="M329.214,211.548H337.7a1.662,1.662,0,0,1,1.688,2.1l-1.735,8.376a2.728,2.728,0,0,1-2.555,2.1h-8.485a1.662,1.662,0,0,1-1.688-2.1l1.734-8.376A2.728,2.728,0,0,1,329.214,211.548Z" transform="translate(-324.866 -211.546)"/></g><g transform="translate(43.455 12.38)"><path class="d" d="M374.652,211.548h8.484a1.662,1.662,0,0,1,1.688,2.1l-1.735,8.376a2.728,2.728,0,0,1-2.555,2.1H372.05a1.662,1.662,0,0,1-1.688-2.1l1.734-8.376A2.728,2.728,0,0,1,374.652,211.548Z" transform="translate(-370.304 -211.546)"/></g></g></g></g></svg>